<svg xmlns="http://www.w3.org/2000/svg" viewBox="0 0 64 64"><rect width="2" height="4" x="28" y="38"/><rect width="2" height="4" x="34" y="38"/><rect width="2" height="2" x="20" y="32"/><rect width="2" height="5" x="23" y="32"/><rect width="2" height="5" x="39" y="32"/><rect width="2" height="2" x="42" y="32"/><rect width="2" height="2" x="10" y="36"/><rect width="2" height="2" x="10" y="40"/><rect width="2" height="2" x="12" y="38"/><rect width="2" height="2" x="8" y="38"/><rect width="2" height="2" x="53" y="36"/><rect width="2" height="2" x="53" y="40"/><rect width="2" height="2" x="55" y="38"/><rect width="2" height="2" x="51" y="38"/><rect width="2" height="2" x="14" y="8"/><rect width="2" height="2" x="14" y="12"/><rect width="2" height="2" x="16" y="10"/><rect width="2" height="2" x="12" y="10"/><rect width="2" height="2" x="49" y="8"/><rect width="2" height="2" x="49" y="12"/><rect width="2" height="2" x="51" y="10"/><rect width="2" height="2" x="47" y="10"/><path d="M38 54H62V52H38a6.974 6.974 0 0 0-4.9 2.009A5.008 5.008 0 0 1 38 50H60V48H38a7.006 7.006 0 0 0-6.946 6.17A6.973 6.973 0 0 0 26 52H2v2H26a4.977 4.977 0 0 1 3.974 2H3a1 1 0 0 0-1 1v2a3 3 0 0 0 3 3H59a3 3 0 0 0 3-3V57a1 1 0 0 0-1-1H34.026A4.977 4.977 0 0 1 38 54zM5 60a1 1 0 0 1-1-1V58H30.9c.066.323.1 2 .1 2zm55-2v1a1 1 0 0 1-1 1H33s.035-1.677.1-2zM20 29h6v1a1 1 0 0 0 1 1h2.523l-1.452 3.628A1 1 0 0 0 29 36h6a1 1 0 0 0 .929-1.372L34.477 31H37a1 1 0 0 0 1-1V29h6a1 1 0 0 0 1-1v-.481a12.985 12.985 0 0 0-4.54-9.87L38 15.54V13.205a10.937 10.937 0 0 0-2.049-6.394L32.814 2.419a1.037 1.037 0 0 0-1.628 0L28.049 6.811A10.937 10.937 0 0 0 26 13.205v2.381l-3.192 3.192A12.93 12.93 0 0 0 19 28 1 1 0 0 0 20 29zM38 18.174l1.159.993A10.989 10.989 0 0 1 42.988 27H38zM30.477 34l1.2-3h.646l1.2 3zm-.8-26.027L32 4.721l2.323 3.252A8.941 8.941 0 0 1 35.7 11H28.3A8.941 8.941 0 0 1 29.677 7.973zM28 13.205c0-.069.014-.136.016-.205h7.968c0 .069.016.136.016.205V25H28zM28 27h8v2H28zm-3.778-6.808L26 18.414V27H21.042A10.925 10.925 0 0 1 24.222 20.192z"/><path d="M32,15a3,3,0,1,0,3,3A3,3,0,0,0,32,15Zm0,4a1,1,0,1,1,1-1A1,1,0,0,1,32,19Z"/></svg>